# xmcd
#
# Track frame offsets: 
#        150
#        10553
#        20514
#        30940
#        39901
#        49223
#        59820
#        70305
#        80772
#        92651
#        105912
#        117448
#        128600
#        139155
#        149263
#        157644
#        168887
#        178778
#        188927
#        199161
#        209299
#        221108
#        232795
#        243045
#        254465
#
# Disc length: 3532 seconds
#
# Revision: 0
# Processed by: cddbd v1.5.2PL0 Copyright (c) Steve Scherf et al.
# Submitted via: ExactAudioCopy v1.3
#
DISCID=500dca19
DTITLE=Johnny Horton - The Best Of Johnny Horton CD 1
DYEAR=2018
DGENRE=Country
TTITLE0=Big Wheels Rollin' (1955)
TTITLE1=Honky Tonk Man
TTITLE2=I’m Ready If You're Willing
TTITLE3=I’m a One-Woman Man
TTITLE4=I’m Coming Home
TTITLE5=I Got a Hole in My Pirogue
TTITLE6=She Knows Why
TTITLE7=Honky Tonk Hardwood Floor
TTITLE8=When It’s Springtime in Alaska (It’s Forty Below)
TTITLE9=Whispering Pines
TTITLE10=The Battle of New Orleans
TTITLE11=All for the Love of a Girl
TTITLE12=Johnny Reb
TTITLE13=Sal’s Got a Sugar Lip
TTITLE14=All Grown Up
TTITLE15=Cherokee Boogie
TTITLE16=Got the Bull by the Horns
TTITLE17=I’m a Mean, Mean, Mean Son of a Gun
TTITLE18=In My Home in Shelby County
TTITLE19=It’s a Long Rocky Road
TTITLE20=Joe’s Been a Gittin’ There
TTITLE21=Lost Highway
TTITLE22=Move Down The Line
TTITLE23=Mr Moonlight
TTITLE24=Plaid and Calico
EXTD=
EXTT0=
EXTT1=
EXTT2=
EXTT3=
EXTT4=
EXTT5=
EXTT6=
EXTT7=
EXTT8=
EXTT9=
EXTT10=
EXTT11=
EXTT12=
EXTT13=
EXTT14=
EXTT15=
EXTT16=
EXTT17=
EXTT18=
EXTT19=
EXTT20=
EXTT21=
EXTT22=
EXTT23=
EXTT24=
PLAYORDER=
